<svg width="64" height="48" viewBox="0 0 64 48" fill="none" xmlns="http://www.w3.org/2000/svg">
<path fill-rule="evenodd" clip-rule="evenodd" d="M32.0001 3.4913C30.1512 1.65492 28.153 1.76992e-06 25.7575 1.76992e-06H0C1.98803 1.97434 3.98988 5.28983 3.98988 8.8075V43.1306H24.3748C26.1229 43.1306 29.2774 44.9732 29.2774 48H34.7226C34.7226 44.9732 37.8771 43.1306 39.6252 43.1306H60.0103V8.8075C60.0103 5.28983 62.012 1.97434 64 1.76992e-06H38.2425C35.8472 1.76992e-06 33.849 1.65492 32.0001 3.4913ZM16.0155 8.22504C17.6886 8.22504 19.0449 9.57223 19.0449 11.2339C19.0449 12.8959 17.6886 14.2431 16.0155 14.2431C14.3423 14.2431 12.9859 12.8959 12.9859 11.2339C12.9859 9.57223 14.3423 8.22504 16.0155 8.22504ZM35.257 26.1229H54.0931L54.1066 21.9452H35.257H32.3982C25.0772 21.9452 19.0871 27.8947 19.0871 35.1666V37.7079H24.3748C27.2519 37.7079 29.9936 39.0087 32.0001 41.0311C34.0065 39.0087 36.7483 37.7079 39.6252 37.7079H54.0716C54.0716 35.6494 54.0744 33.572 54.079 31.4831H40.6536L35.257 26.1229ZM54.1237 16.5851H35.257V8.59813C35.257 7.69735 36.6343 5.89837 38.3505 5.89837H54.1423C54.1423 9.41727 54.1344 12.9919 54.1237 16.5851ZM28.9404 16.5996C20.4368 16.9452 13.5883 23.9595 13.5883 32.4864V37.7079H9.9284C9.9284 27.2633 9.9284 16.343 9.9284 5.89837H25.6495C27.0192 5.89837 28.9404 6.83736 28.9404 8.59813V16.5996Z" fill="#34D399"/>
</svg>
